<svg width="187" height="54" viewBox="0 0 187 54" fill="none" xmlns="http://www.w3.org/2000/svg">
<path d="M66.4503 12.7506H74.3711V9.58603H66.4503V3.17998H75.0442V0H62.6308V22.6132H75.5608V19.4332H66.4503V12.7506Z" fill="white"/>
<path d="M89.0073 6.46748L85.313 12.9196L84.6712 11.7214L81.8379 6.48286H77.5018L82.7928 14.717L77.2044 22.6286H81.4935L84.4364 17.6205C84.8434 16.9445 85.0626 16.5605 85.1095 16.4529C85.36 16.9445 85.5792 17.3286 85.7513 17.6205L88.6473 22.6286H92.9677L87.5515 14.6556L93.0303 6.48286L89.0073 6.46748Z" fill="white"/>
<path d="M105.209 6.08341C104.06 6.04891 102.925 6.33341 101.933 6.90412C100.942 7.47483 100.135 8.30857 99.6049 9.30948V6.46746H95.8793V30.0485H99.6049V20.2321C100.084 21.0765 100.79 21.7762 101.645 22.2554C102.5 22.7347 103.473 22.9753 104.458 22.9511C105.489 22.9934 106.516 22.7955 107.455 22.3736C108.393 21.9518 109.217 21.3179 109.858 20.5239C111.251 18.6478 111.948 16.3598 111.831 14.0411C111.941 11.9703 111.322 9.92529 110.077 8.24949C109.499 7.53509 108.756 6.96602 107.91 6.58935C107.063 6.21269 106.137 6.03926 105.209 6.08341ZM106.774 18.4961C106.422 18.9601 105.97 19.3431 105.451 19.6183C104.932 19.8934 104.359 20.0541 103.77 20.0892C103.181 20.1244 102.592 20.033 102.043 19.8215C101.494 19.61 100.998 19.2835 100.591 18.8648C99.832 18.0475 99.4227 16.9748 99.4484 15.8692V13.8567C99.4064 12.594 99.835 11.3597 100.654 10.3849C101.048 9.93264 101.542 9.5735 102.097 9.33414C102.653 9.09478 103.256 8.98136 103.863 9.00227C104.432 8.97802 105 9.0881 105.517 9.32331C106.035 9.55852 106.487 9.91197 106.837 10.3541C107.631 11.4314 108.024 12.7441 107.948 14.0718C108.064 15.6248 107.675 17.1739 106.837 18.4961H106.774Z" fill="white"/>
<path d="M122.522 6.08342C121.462 6.06278 120.409 6.26453 119.435 6.67516C118.46 7.0858 117.586 7.69588 116.871 8.46459C115.319 10.1392 114.503 12.3476 114.601 14.6095C114.472 16.8407 115.21 19.0371 116.668 20.7544C117.401 21.5005 118.289 22.0829 119.273 22.462C120.256 22.8411 121.311 23.0079 122.365 22.9512C124.438 23.0458 126.495 22.561 128.298 21.5532V18.6037C126.901 19.6102 125.21 20.1488 123.477 20.1399C122.132 20.2191 120.808 19.7842 119.783 18.9263C119.32 18.4746 118.957 17.9351 118.715 17.3407C118.472 16.7464 118.356 16.1097 118.374 15.4698H129.598V14.0718C129.725 11.9442 129.064 9.8431 127.735 8.15733C127.081 7.44862 126.273 6.89401 125.37 6.53489C124.468 6.17577 123.494 6.02143 122.522 6.08342ZM118.374 12.9196C118.488 11.8005 118.972 10.7486 119.751 9.92398C120.096 9.55262 120.517 9.25674 120.986 9.05558C121.456 8.85443 121.963 8.75253 122.475 8.75648C122.961 8.73233 123.446 8.8197 123.892 9.0117C124.338 9.20371 124.731 9.49505 125.042 9.86256C125.717 10.7455 126.055 11.8328 125.997 12.935L118.374 12.9196Z" fill="white"/>
<path d="M138.598 7.14344C137.799 7.85016 137.223 8.76725 136.939 9.78575V6.4675H133.151V22.6132H136.892V14.9321C136.811 13.5246 137.195 12.1291 137.988 10.9533C138.282 10.4899 138.689 10.1064 139.173 9.83797C139.658 9.56954 140.203 9.42482 140.759 9.41707C141.445 9.37224 142.127 9.55038 142.7 9.924V6.4675C142.209 6.24864 141.672 6.14854 141.134 6.17561C140.197 6.18179 139.294 6.52628 138.598 7.14344Z" fill="white"/>
<path d="M151.012 1.67447L147.286 2.71909V6.46748H144.531V9.34026H147.239V18.4654C147.239 21.4764 148.836 22.9819 152.029 22.9819C153.021 23.0241 154.008 22.8345 154.91 22.4289V19.5408C154.438 19.8926 153.858 20.0768 153.266 20.0631C152.942 20.0946 152.615 20.0574 152.307 19.954C151.999 19.8506 151.718 19.6835 151.481 19.464C151.082 18.8526 150.901 18.1288 150.965 17.4054V9.34026H154.91V6.46748H150.965L151.012 1.67447Z" fill="white"/>
<path d="M66.4659 43.7182H74.3711V40.5535H66.4659V34.1475H75.0598V30.9675H62.6308V53.5807H75.5764V50.4007H66.4659V43.7182Z" fill="white"/>
<path d="M83.012 29.6771H79.2707V53.5807H83.012V29.6771Z" fill="white"/>
<path d="M94.7209 37.051C93.6684 37.0369 92.6249 37.2418 91.6589 37.6523C90.693 38.0627 89.8266 38.6693 89.1169 39.4321C87.5645 41.1067 86.7488 43.3152 86.8471 45.577C86.7194 47.8054 87.4515 49.9993 88.8977 51.7219C89.633 52.4656 90.5218 53.0464 91.5046 53.4253C92.4873 53.8042 93.5413 53.9724 94.5957 53.9187C96.6736 54.0163 98.7367 53.5314 100.544 52.5207V49.5712C99.1466 50.5777 97.4563 51.1163 95.7228 51.1074C94.3736 51.1827 93.0462 50.7485 92.0129 49.8938C91.5527 49.4414 91.1917 48.9014 90.9521 48.3069C90.7125 47.7125 90.5993 47.0762 90.6197 46.4373H101.828V45.0393C101.96 42.9136 101.304 40.8128 99.9806 39.1249C99.3199 38.4125 98.5036 37.856 97.5928 37.4968C96.682 37.1377 95.7002 36.9853 94.7209 37.051ZM90.5727 43.8872C90.6892 42.7716 91.1665 41.7218 91.9346 40.8915C92.2826 40.5197 92.7062 40.2238 93.1781 40.0226C93.65 39.8215 94.1596 39.7198 94.674 39.724C95.16 39.6999 95.6452 39.7872 96.0908 39.9792C96.5365 40.1712 96.9303 40.4626 97.2412 40.8301C97.9191 41.7108 98.2524 42.8011 98.1804 43.9025L90.5727 43.8872Z" fill="white"/>
<path d="M106.68 39.4782C105.865 40.3351 105.231 41.343 104.818 42.4429C104.404 43.5429 104.217 44.7128 104.27 45.8842C104.226 46.9537 104.404 48.0208 104.791 49.0213C105.178 50.0218 105.768 50.9352 106.524 51.7065C107.298 52.4639 108.223 53.0556 109.241 53.4443C110.26 53.8329 111.349 54.0102 112.441 53.9648C114.082 54.0096 115.705 53.6167 117.137 52.828V49.648C116.083 50.542 114.742 51.0425 113.349 51.0613C112.644 51.0923 111.94 50.9784 111.282 50.7271C110.625 50.4758 110.028 50.0926 109.529 49.6019C108.54 48.5171 108.028 47.0924 108.105 45.6385C108.054 44.122 108.617 42.6475 109.67 41.5367C110.17 41.0259 110.774 40.6248 111.443 40.36C112.113 40.0952 112.831 39.9727 113.552 40.0005C114.881 40.0137 116.169 40.4564 117.215 41.2602V37.8498C115.96 37.3203 114.605 37.0585 113.239 37.0817C112.036 37.012 110.832 37.1891 109.703 37.6018C108.573 38.0144 107.544 38.6535 106.68 39.4782Z" fill="white"/>
<path d="M125.543 32.642L121.818 33.6866V37.435H119.078V40.3078H121.818V49.4329C121.818 52.4439 123.414 53.9494 126.608 53.9494C127.599 53.9916 128.586 53.8021 129.488 53.3964V50.5083C129.016 50.8601 128.437 51.0443 127.844 51.0306C127.52 51.0621 127.193 51.0249 126.886 50.9215C126.578 50.8182 126.296 50.651 126.06 50.4315C125.661 49.8201 125.479 49.0963 125.543 48.3729V40.3078H129.488V37.435H125.543V32.642Z" fill="white"/>
<path d="M138.254 38.1109C137.45 38.8162 136.868 39.7333 136.579 40.7532V37.435H132.791V53.5807H136.516V45.8996C136.436 44.4921 136.82 43.0966 137.612 41.9208C137.909 41.4603 138.317 41.079 138.801 40.811C139.284 40.543 139.828 40.3964 140.383 40.3846C141.069 40.3397 141.751 40.5179 142.324 40.8915V37.435C141.834 37.2132 141.297 37.1129 140.759 37.1431C139.831 37.151 138.938 37.4958 138.254 38.1109Z" fill="white"/>
<path d="M148.679 37.435H144.954V53.5807H148.679V37.435Z" fill="white"/>
<path d="M146.832 29.8768C146.25 29.8662 145.688 30.0815 145.267 30.4759C145.054 30.6718 144.886 30.9104 144.776 31.1755C144.665 31.4405 144.614 31.7259 144.625 32.0121C144.61 32.2988 144.66 32.5851 144.771 32.8506C144.882 33.1161 145.051 33.3544 145.267 33.5484C145.702 33.917 146.258 34.1199 146.832 34.1199C147.407 34.1199 147.963 33.917 148.398 33.5484C148.605 33.3586 148.77 33.1291 148.883 32.8741C148.996 32.6191 149.054 32.344 149.054 32.0659C149.054 31.7878 148.996 31.5127 148.883 31.2577C148.77 31.0027 148.605 30.7732 148.398 30.5835C147.991 30.1551 147.428 29.9013 146.832 29.8768Z" fill="white"/>
<path d="M154.863 39.4782C154.043 40.3326 153.408 41.34 152.993 42.4406C152.579 43.5412 152.395 44.7123 152.452 45.8842C152.409 46.9523 152.585 48.018 152.97 49.0181C153.354 50.0182 153.939 50.9324 154.69 51.7065C155.464 52.4638 156.389 53.0556 157.408 53.4442C158.426 53.8329 159.516 54.0102 160.608 53.9648C162.249 54.0065 163.871 53.6138 165.304 52.828V49.648C164.243 50.5408 162.897 51.0409 161.5 51.0613C160.797 51.0939 160.095 50.9808 159.439 50.7294C158.784 50.4779 158.19 50.0937 157.696 49.6019C157.203 49.0666 156.824 48.4406 156.579 47.7603C156.335 47.0799 156.23 46.3587 156.271 45.6385C156.221 44.122 156.784 42.6475 157.837 41.5367C158.336 41.0259 158.941 40.6248 159.61 40.36C160.279 40.0952 160.998 39.9727 161.719 40.0005C163.048 40.0137 164.335 40.4564 165.382 41.2602V37.8498C164.127 37.3203 162.772 37.0585 161.406 37.0817C160.205 37.0133 159.004 37.191 157.877 37.6036C156.751 38.0162 155.724 38.6547 154.863 39.4782Z" fill="white"/>
<path d="M178.422 46.0839C177.998 45.6818 177.518 45.3405 176.997 45.07C176.434 44.7781 175.807 44.5016 175.103 44.2097L173.678 43.7182C173.305 43.5895 172.948 43.4194 172.614 43.2112C172.347 43.0502 172.118 42.8355 171.941 42.5813C171.791 42.3077 171.716 42.0009 171.722 41.6904C171.722 41.4146 171.798 41.144 171.941 40.9069C172.105 40.6668 172.318 40.4628 172.567 40.3078C172.866 40.1236 173.194 39.9887 173.538 39.9083C173.958 39.8126 174.389 39.7662 174.821 39.7701C176.238 39.7417 177.629 40.15 178.797 40.9376V37.7422C177.494 37.2753 176.115 37.0463 174.727 37.0663C173.883 37.0671 173.041 37.1703 172.223 37.3736C171.459 37.5573 170.734 37.8691 170.078 38.2953C169.443 38.6821 168.907 39.2079 168.513 39.8315C168.135 40.4527 167.945 41.1668 167.965 41.8901C167.949 42.4544 168.039 43.0168 168.231 43.5492C168.411 44.0242 168.688 44.4581 169.045 44.8242C169.441 45.2204 169.895 45.557 170.391 45.8228C170.981 46.1409 171.593 46.4181 172.223 46.6523L173.694 47.2054C174.1 47.3335 174.489 47.5088 174.852 47.7277C175.158 47.9043 175.424 48.1394 175.635 48.419C175.836 48.6911 175.941 49.0202 175.933 49.3561C175.933 50.6619 174.806 51.3071 172.551 51.3071C170.885 51.3179 169.263 50.7766 167.949 49.7709V53.1045C169.429 53.7372 171.032 54.0415 172.645 53.9955C173.541 53.9955 174.433 53.8976 175.306 53.7036C176.093 53.5244 176.845 53.2181 177.529 52.7972C178.165 52.4108 178.701 51.8849 179.095 51.261C179.494 50.6134 179.695 49.8669 179.674 49.1103C179.689 48.5155 179.577 47.9242 179.345 47.3744C179.139 46.8822 178.823 46.4413 178.422 46.0839Z" fill="white"/>
<path d="M184.902 32.5806C185.048 32.5539 185.181 32.4807 185.28 32.3724C185.379 32.2641 185.439 32.1266 185.45 31.9815C185.455 31.8729 185.433 31.7648 185.386 31.666C185.34 31.5673 185.271 31.4806 185.184 31.4131C184.907 31.2631 184.591 31.1988 184.276 31.2287C183.935 31.223 183.595 31.2487 183.259 31.3055V33.9017H183.869V32.8571H184.167C184.495 32.8571 184.652 32.98 184.699 33.2565C184.747 33.4789 184.821 33.6953 184.918 33.9017H185.576C185.479 33.6923 185.415 33.4695 185.388 33.2412C185.376 33.098 185.325 32.9606 185.239 32.8441C185.154 32.7276 185.037 32.6365 184.902 32.5806ZM184.182 32.3962H183.885V31.5974C183.999 31.582 184.115 31.582 184.229 31.5974C184.605 31.5974 184.793 31.7664 184.793 31.9968C184.793 32.2273 184.511 32.3962 184.182 32.3962Z" fill="white"/>
<path d="M184.292 29.9075C183.767 29.9166 183.257 30.0778 182.825 30.3709C182.393 30.6641 182.059 31.0759 181.866 31.5547C181.672 32.0336 181.627 32.5579 181.736 33.0619C181.845 33.5658 182.104 34.0268 182.479 34.3868C182.855 34.7468 183.33 34.9897 183.846 35.0851C184.362 35.1804 184.895 35.1239 185.379 34.9226C185.862 34.7213 186.274 34.3843 186.562 33.9538C186.851 33.5234 187.003 33.0189 187 32.5037C186.996 32.1587 186.923 31.8179 186.784 31.5007C186.646 31.1835 186.445 30.8962 186.194 30.6551C185.942 30.414 185.645 30.2239 185.319 30.0956C184.992 29.9674 184.643 29.9034 184.292 29.9075ZM184.292 34.5161C183.869 34.5377 183.45 34.4342 183.088 34.2191C182.726 34.004 182.438 33.6872 182.262 33.3097C182.085 32.9322 182.028 32.5115 182.098 32.1019C182.168 31.6923 182.362 31.3128 182.654 31.0125C182.946 30.7122 183.324 30.5049 183.738 30.4175C184.151 30.3301 184.582 30.3667 184.975 30.5224C185.367 30.6781 185.703 30.9458 185.938 31.2908C186.174 31.6358 186.298 32.0423 186.296 32.4576C186.315 32.7267 186.278 32.9968 186.187 33.2513C186.096 33.5059 185.953 33.7395 185.767 33.938C185.581 34.1365 185.355 34.2956 185.104 34.4055C184.854 34.5155 184.582 34.5741 184.308 34.5776L184.292 34.5161Z" fill="white"/>
<path d="M25.7189 7.50808C26.414 7.49323 27.0876 7.26845 27.6478 6.86434C28.2081 6.46024 28.6277 5.89647 28.8497 5.24983C28.9626 4.91265 29.0207 4.56008 29.0219 4.20516C29.0241 3.66905 28.8896 3.14092 28.6305 2.66894C28.3474 2.13967 27.922 1.69663 27.4004 1.38789C26.8789 1.07915 26.2811 0.916531 25.672 0.917668C25.0183 0.904153 24.3747 1.0769 23.819 1.41499C23.2634 1.75308 22.8195 2.242 22.5412 2.82257C22.3328 3.25465 22.2258 3.72711 22.2281 4.20516C22.2363 5.07866 22.5935 5.91413 23.2229 6.53181C23.8523 7.14949 24.7036 7.50006 25.5937 7.50808H25.7189Z" fill="white"/>
<path d="M44.4096 42.8566L43.6582 43.3482L43.4078 43.4864L42.9225 43.7322L42.4059 43.9626L42.1554 44.0702L41.8893 44.1624L41.3728 44.3621L40.8405 44.5157L39.7761 44.7922C39.4004 44.7922 39.056 44.9458 38.6803 44.9919L38.1481 45.0841H37.1463C37.4593 44.485 37.7411 43.8551 38.0072 43.256C38.5011 42.0795 38.9194 40.8737 39.2595 39.6459C39.3534 39.354 39.4317 39.0621 39.4943 38.7856C39.5276 38.6955 39.5538 38.6031 39.5726 38.5091C40.637 37.7563 41.6702 36.9728 42.7033 36.1279L43.2669 35.6363L43.8147 35.1294L44.8792 34.0847C45.5729 33.3729 46.2261 32.6241 46.8359 31.8419L46.9455 31.7036C47.1177 32.1798 47.2742 32.6561 47.3995 33.1323C47.6236 33.9253 47.7652 34.7385 47.8221 35.5595C47.8221 35.7899 47.8221 36.005 47.8221 36.2354H48.1039C48.9304 36.2428 49.7383 36.4769 50.4363 36.9114C50.4753 36.4 50.4753 35.8865 50.4363 35.3752C50.3843 34.3826 50.2216 33.3987 49.951 32.441C49.951 32.1952 49.8102 31.9647 49.7319 31.7189L49.6223 31.3656L49.4814 31.0123L49.2153 30.321C49.1057 30.0905 49.0118 29.8601 48.9179 29.645L48.6205 29.1381C49.0339 28.4164 49.3948 27.6669 49.7006 26.8952C50.0613 26.0035 50.3237 25.0765 50.4833 24.13C50.6534 23.1769 50.7008 22.2066 50.6241 21.2419L50.5302 20.5352L50.3893 19.844C50.3893 19.7364 50.3893 19.6135 50.2798 19.4906C50.2504 19.3759 50.2138 19.263 50.1702 19.1527V18.9683C50.1764 18.9173 50.1764 18.8657 50.1702 18.8147L50.045 18.5228C49.688 17.6761 49.2082 16.8844 48.6205 16.1724C47.4952 14.844 46.0694 13.7919 44.4566 13.0999C43.7143 12.7654 42.9445 12.493 42.1554 12.2857L41.5763 12.1475L41.2945 12.0707H40.9971L40.4336 11.9478L39.87 11.8556C39.1969 11.7634 38.5238 11.6866 37.8663 11.6405C37.4763 10.7717 37.0265 9.93 36.5201 9.12112L36.2227 8.62952L35.5339 7.64636L35.1582 7.17013C34.64 6.51712 34.0695 5.9058 33.452 5.34202L33.2015 5.11155L32.9511 4.91188L32.4345 4.49707L31.8866 4.11302L31.6048 3.92868C31.5006 3.88154 31.401 3.82499 31.3074 3.75972C30.882 3.5061 30.4371 3.28521 29.9768 3.0991C30.0847 3.4476 30.1375 3.81028 30.1334 4.17448C30.1344 4.66267 30.0442 5.14689 29.8673 5.60316L30.149 5.74141L30.65 6.01797L31.1196 6.30985C31.2782 6.40718 31.4298 6.51495 31.5735 6.63244L31.8083 6.78608L32.0275 6.95504L32.4501 7.30839L32.8728 7.67707L33.2641 8.06112C33.3894 8.18402 33.5302 8.30692 33.6555 8.44518C33.7807 8.58344 34.1564 8.98284 34.3755 9.244L34.7199 9.6588L35.0487 10.0889C35.4243 10.5805 35.7844 11.0875 36.0975 11.6252H35.5339C34.2351 11.6471 32.9388 11.7446 31.6518 11.9171L30.7595 12.0399L29.8986 12.1936L28.6776 12.424C26.8213 11.7022 24.9111 11.1218 22.964 10.688L22.2282 10.5345L21.4769 10.3962C20.9916 10.3194 20.4907 10.2272 19.9115 10.1657C19.3323 10.1043 18.5026 10.0121 17.7982 9.96602L17.8921 9.84315C18.4004 9.14859 18.9659 8.49609 19.5827 7.89216C20.1711 7.31879 20.8161 6.80419 21.5082 6.35594L21.8369 6.15622C21.5419 5.56818 21.3867 4.92209 21.3829 4.26665C21.3832 3.97236 21.4147 3.67888 21.4769 3.39099C20.978 3.62902 20.4968 3.90109 20.0367 4.20519C19.1862 4.755 18.3989 5.39374 17.6887 6.11014C17.5008 6.29448 17.3443 6.47881 17.1721 6.66315L16.6711 7.21622C16.5303 7.41593 16.3581 7.60023 16.2015 7.79994L15.7476 8.39909C15.3719 8.92141 15.0119 9.47446 14.6831 10.0429H13.9787C13.0022 10.1431 12.0344 10.3125 11.0828 10.5498C10.1362 10.7935 9.21814 11.1333 8.34336 11.5637C7.47964 11.9785 6.67019 12.4944 5.93267 13.0999L5.40045 13.5762L4.93083 14.1138C4.84424 14.1989 4.76566 14.2914 4.69603 14.3904L4.47688 14.6822L4.36729 14.8205L4.27338 14.9587L4.10118 15.2353C3.61134 16.0175 3.24209 16.8664 3.00543 17.7547C2.60683 19.4323 2.60683 21.1774 3.00543 22.855C3.17578 23.6389 3.40603 24.4092 3.69419 25.1593C3.69419 25.3283 3.83508 25.5126 3.91335 25.697L4.02291 25.9735L4.14814 26.2346C4.18865 26.3348 4.23571 26.4323 4.28902 26.5265V26.6033L3.94466 27.0796C3.83124 27.2377 3.72671 27.4018 3.63157 27.5712L3.45937 27.817L3.30285 28.0781C3.20893 28.2471 3.115 28.4314 3.00543 28.6004C2.60078 29.3284 2.26039 30.0891 1.98794 30.874C1.9445 30.9739 1.90788 31.0766 1.87835 31.1813C1.84883 31.2859 1.81224 31.3886 1.76879 31.4885C1.76879 31.7036 1.64356 31.9033 1.5966 32.1184L1.4557 32.7789C1.4557 32.8865 1.4557 32.994 1.4557 33.1015V33.4395C1.37754 34.0096 1.34614 34.585 1.36178 35.1601C2.02647 34.7779 2.78294 34.5764 3.55332 34.5763H3.74115C3.72553 34.2795 3.72553 33.9821 3.74115 33.6853C3.74115 33.5931 3.74115 33.501 3.74115 33.4088C3.73346 33.3168 3.73346 33.2243 3.74115 33.1323C3.74115 32.9479 3.74115 32.7636 3.74115 32.5792C3.74115 32.3949 3.81941 32.2259 3.85072 32.0416C3.85961 31.9547 3.85961 31.8672 3.85072 31.7804C3.84172 31.6936 3.84172 31.6061 3.85072 31.5192C3.89353 31.3425 3.94579 31.1682 4.00727 30.9969C4.00727 30.8126 4.11684 30.6436 4.17946 30.4746C4.24207 30.3056 4.30468 30.1367 4.36729 29.9677L4.58645 29.4607C4.74298 29.1381 4.88388 28.8001 5.04042 28.4929V28.3546C5.55467 29.2105 6.11916 30.0363 6.73103 30.828C7.58764 31.8553 8.50772 32.8301 9.48608 33.7468C9.70523 33.9465 9.89307 34.1769 10.1122 34.3766L10.7384 34.9757L11.0671 35.2676C11.3526 36.8748 11.7501 38.4608 12.2568 40.0145L12.4916 40.7212L12.7421 41.4125C12.9299 41.8734 13.1021 42.3343 13.3056 42.7798C13.3056 42.9641 13.4621 43.1484 13.5404 43.3328H12.9456L12.2881 43.1945C11.436 43.009 10.5989 42.7625 9.7835 42.4572C9.00284 42.16 8.2532 41.7895 7.545 41.3511C7.41165 41.2818 7.2858 41.1994 7.16933 41.1053C6.70197 41.8783 6.00196 42.4901 5.16565 42.8566C5.46307 43.1024 5.79179 43.3174 6.10486 43.5325C6.9634 44.069 7.87618 44.5168 8.82862 44.869L9.90874 45.2377L10.2688 45.3299L11.0045 45.5296L11.7402 45.6986C12.7325 45.897 13.7362 46.0355 14.7457 46.1133H15.0119L15.4032 46.7279L15.591 47.0351L15.8102 47.327L16.2328 47.9261C16.8199 48.6982 17.4634 49.4272 18.1582 50.1075C18.8496 50.7865 19.6102 51.3939 20.4281 51.9203C21.2352 52.4445 22.1088 52.8628 23.0266 53.1646L23.7153 53.3643L24.4197 53.5026H25.8286C26.7597 53.5195 27.6882 53.4004 28.5837 53.1493C30.2663 52.6508 31.809 51.7781 33.0919 50.5991C33.6979 50.0667 34.2581 49.486 34.7669 48.8632L35.1426 48.4023L35.3148 48.1719C35.3148 48.0951 35.4243 48.0029 35.487 47.9414L35.8157 47.4806L36.1288 47.0044L36.3166 46.7125C36.8019 46.7125 37.3028 46.7125 37.8037 46.7125H40.2144C41.0503 46.5958 41.8768 46.4212 42.6877 46.1902L43.0008 46.098L43.3138 45.9905L43.9243 45.76L44.5505 45.4835L44.8479 45.3299L45.161 45.1763C45.5735 44.9562 45.9709 44.7098 46.3507 44.4389C45.5634 44.1035 44.89 43.5546 44.4096 42.8566ZM46.1628 30.0905L45.9124 30.4131L45.4897 30.9508C44.8949 31.6575 44.2844 32.3488 43.6113 33.0094L42.5781 33.9772L41.5137 34.8989L40.1674 35.9436V35.7592C40.1674 35.5134 40.2613 35.2676 40.2927 35.0372C40.324 34.8068 40.3709 34.5763 40.4022 34.3612L40.4962 33.7007C40.7153 31.9955 40.7779 30.6283 40.8249 29.7372C40.8249 29.2764 40.8249 28.923 40.8249 28.6772V28.3239C40.84 28.2015 40.84 28.0777 40.8249 27.9552V26.9106C40.8249 26.6648 40.8249 26.419 40.8249 26.1271C40.8168 25.9787 40.8168 25.83 40.8249 25.6816C40.8249 25.528 40.8249 25.3744 40.8249 25.2054C40.8249 25.0364 40.8249 24.5141 40.7466 24.13C40.6684 23.7459 40.7466 23.3466 40.637 22.9164C40.637 22.8089 40.637 22.7013 40.637 22.5938C41.1066 23.07 41.5763 23.5462 42.0146 24.0378C42.1711 24.1915 42.3277 24.3758 42.4842 24.5601L42.9381 25.0824C43.2199 25.4511 43.5173 25.8045 43.7835 26.1885C44.3485 26.9115 44.8711 27.6655 45.3488 28.4468L45.6775 29.0306C45.7972 29.2168 45.9019 29.412 45.9906 29.6143L46.1472 29.9062L46.2411 30.0752L46.1628 30.0905ZM39.6509 12.6083L40.1831 12.7313L40.731 12.8695H41.0127L41.2788 12.9463L41.8111 13.1153C41.9989 13.1153 42.1711 13.2382 42.359 13.2996L42.8912 13.4994L43.4234 13.7298L43.94 13.9756L44.2061 14.1138L44.4566 14.2521L44.9575 14.544L45.4427 14.8666L45.6775 15.0509L45.9124 15.2199C46.5442 15.7016 47.1121 16.259 47.603 16.879L47.9474 17.3706L48.0413 17.4935L48.1195 17.6318L48.2604 17.8929V18.0159C48.2663 18.0618 48.2663 18.1082 48.2604 18.1541L48.3857 18.4152L48.5109 18.6918V18.9222L48.6205 19.2294C48.6274 19.2804 48.6274 19.3321 48.6205 19.3831V19.7979C48.6368 19.8945 48.6368 19.9931 48.6205 20.0897C48.6205 20.2894 48.6205 20.4892 48.7457 20.6889V21.288C48.7976 22.1214 48.7397 22.9579 48.5735 23.7767C48.4089 24.6257 48.1517 25.4549 47.8065 26.25C47.6343 26.634 47.4464 27.0181 47.2586 27.4022L46.9768 26.9566C46.4443 26.1164 45.8642 25.306 45.2392 24.5294C44.9262 24.13 44.5818 23.7459 44.2687 23.3619C43.9556 22.9778 43.9243 22.9932 43.7521 22.8089C43.58 22.6245 43.4234 22.4401 43.2356 22.2558C42.0927 21.0749 40.8745 19.9666 39.5882 18.9376C39.5882 18.7378 39.51 18.5381 39.463 18.3231L39.2752 17.4782C39.2752 17.2017 39.1343 16.9098 39.056 16.6179C38.7438 15.3642 38.3464 14.1325 37.8663 12.931C37.7724 12.6852 37.6941 12.4547 37.6002 12.2243C38.6177 12.424 39.1343 12.5008 39.6509 12.6083ZM29.0533 12.6083L29.8673 12.4701L30.7282 12.3625L31.6048 12.255C32.885 12.1427 34.1707 12.1017 35.4556 12.1321H36.3636C36.6453 12.593 36.9114 13.0692 37.1463 13.5301C37.7427 14.643 38.2656 15.7924 38.7116 16.9712C38.8056 17.2477 38.9151 17.5242 39.0091 17.7854L39.1499 18.2463L38.6647 17.8776L38.0385 17.4321L37.4124 17.0019L36.7862 16.5871L36.4575 16.3721L36.1288 16.1878L35.487 15.7729L35.3148 15.6654L34.8451 15.3889L34.1721 15.0048C32.5286 14.0896 30.8296 13.2739 29.0846 12.5622L29.0533 12.6083ZM14.1822 17.1095L14.6518 15.7883C14.824 15.3735 14.9805 14.9434 15.184 14.5133C15.5415 13.6787 15.9439 12.8634 16.3894 12.0707C16.499 11.9017 16.5929 11.7327 16.6868 11.5637H16.812C17.7356 11.5637 18.6905 11.702 19.6141 11.8402C20.0837 11.8402 20.5533 12.0092 21.0229 12.086L21.7117 12.2396L22.4161 12.3933C23.3866 12.6391 24.3571 12.9156 25.312 13.2382C23.7466 13.7144 22.4317 14.1753 21.5864 14.4825L20.5846 14.882L20.2402 15.0202L19.9115 15.1585L18.9409 15.5886L18.2209 15.9112L17.8139 16.0956L17.3756 16.326C17.0781 16.4796 16.7338 16.6333 16.405 16.8176C16.0763 17.002 15.685 17.1709 15.3093 17.4013L14.7144 17.724L14.1039 18.0773C14.0206 18.137 13.9315 18.1884 13.8378 18.2309C13.9474 17.8622 14.057 17.4935 14.1822 17.1095ZM10.8949 34.8682L10.3001 34.2691C10.0966 34.054 9.89307 33.8389 9.70523 33.6085C8.84518 32.6737 8.05026 31.6832 7.32585 30.6436C6.68395 29.7186 6.10355 28.7539 5.58829 27.7555V27.6787C6.27725 26.4944 7.07361 25.3736 7.96766 24.3297C8.82862 23.3158 8.17116 24.1146 9.04778 23.3158L10.7853 21.4263L10.6445 22.3787L10.5662 23.1315C10.5662 23.3773 10.5662 23.6231 10.5662 23.8689C10.5662 24.1147 10.5662 24.3758 10.5662 24.6216V29.1227C10.5662 29.3685 10.5662 29.6297 10.5662 29.8755V32.1184C10.5662 32.3642 10.5662 32.61 10.6445 32.8558C10.7227 33.1016 10.6445 33.3474 10.7384 33.6085L10.8479 34.3459C10.8479 34.5456 10.8479 34.7607 10.9419 34.945L10.8949 34.8682ZM12.1159 15.6961L11.8811 16.4182C11.5316 17.6167 11.2442 18.8319 11.0201 20.059L10.7227 20.2741L9.98701 20.8118C8.94555 21.5984 7.95239 22.4448 7.01278 23.3466C6.20112 24.1316 5.44289 24.968 4.74299 25.8506V25.7123C4.74299 25.6201 4.74299 25.528 4.74299 25.4512L4.55516 24.9135C4.55516 24.7445 4.44558 24.5601 4.38296 24.3758C4.32035 24.1915 4.27337 24.0071 4.24206 23.8381C4.21075 23.6691 4.14816 23.4541 4.11685 23.2851L4.02291 22.7167V22.4402C4.01524 22.343 4.01524 22.2455 4.02291 22.1483C4.02291 21.964 4.02291 21.7796 4.02291 21.5799C4.02291 21.3802 4.02291 21.1958 4.02291 20.9961V20.7043C4.02291 20.6121 4.02291 20.5045 4.02291 20.4124C4.04833 19.6329 4.16923 18.8592 4.38296 18.108C4.38296 17.9083 4.52383 17.724 4.58645 17.5396V17.2631L4.71168 17.0019V16.8637C4.70579 16.8178 4.70579 16.7713 4.71168 16.7254L5.0091 16.2031L5.08738 16.0648L5.27522 15.7883L5.36913 15.6654L5.46305 15.5579L5.65091 15.3275C5.70871 15.247 5.77143 15.17 5.83875 15.097L6.27705 14.6669C6.42626 14.5256 6.58302 14.3923 6.74667 14.2675C7.40315 13.7376 8.12338 13.2887 8.89123 12.931C9.6873 12.5655 10.522 12.2873 11.3802 12.1014C12.1579 11.9187 12.9477 11.7904 13.7439 11.7173C13.4133 12.3609 13.1206 13.0226 12.8673 13.6991C12.6795 14.1446 12.5229 14.6208 12.3351 15.097C12.2568 15.2199 12.1785 15.4657 12.1159 15.6961ZM13.2273 36.9421C13.0082 35.9743 12.8516 34.9911 12.7107 34.0079L12.6325 33.3013C12.6325 33.0708 12.6325 32.825 12.6325 32.5946C12.6325 32.3642 12.6325 32.1184 12.6325 31.8726V29.7372C12.6325 29.4915 12.6325 29.2457 12.6325 29.0152V24.7138C12.6325 24.4833 12.6325 24.2529 12.7107 24.0071C12.789 23.7613 12.7108 23.5309 12.789 23.3005L12.8986 22.5938C13.0864 21.4109 13.3369 20.2587 13.6343 19.1066L13.8065 18.9837L14.4014 18.5689C14.7927 18.2924 15.184 18.062 15.5441 17.8315L16.5929 17.2017L17.5478 16.664C18.1269 16.3414 18.6435 16.0956 19.1131 15.8805C19.5827 15.6654 19.8489 15.5425 20.068 15.4503L20.4124 15.2814L20.7411 15.1585L21.7273 14.7437C22.1656 14.5901 22.6822 14.3596 23.2927 14.1445L24.3102 13.8066C24.6859 13.6837 25.0772 13.5608 25.4999 13.4533H25.719C28.2897 14.3563 30.7643 15.5036 33.1076 16.879C35.6029 18.3537 37.9281 20.0896 40.0422 22.0561C40.0422 22.3787 40.1518 22.7013 40.1987 23.0086C40.2457 23.3158 40.3396 23.8381 40.3709 24.2068C40.4022 24.5755 40.4649 24.9442 40.4962 25.2822C40.4962 25.9427 40.5901 26.4958 40.6057 26.9566C40.6214 27.4175 40.6057 27.7555 40.6057 28.0013C40.5908 28.1186 40.5908 28.2373 40.6057 28.3546V28.708C40.6057 28.9538 40.6057 29.3071 40.6057 29.768C40.6057 30.2288 40.6057 30.7819 40.5275 31.4424C40.5275 31.7804 40.5275 32.1184 40.4336 32.5178C40.3396 32.9172 40.4335 33.2859 40.2927 33.7161C40.1518 34.1462 40.1674 34.5763 40.0892 35.0372C40.0892 35.2676 40.0892 35.5134 39.9639 35.7592L39.87 36.1894C35.0902 39.615 29.611 41.9838 23.8093 43.1331L22.6822 42.6722L21.6803 42.2267C21.0698 41.9655 20.5689 41.689 20.115 41.4893L18.8627 40.8134L18.5496 40.6291L17.6417 40.0914C17.2347 39.8456 16.7494 39.5537 16.2015 39.1696C15.9198 38.9699 15.6224 38.7856 15.3093 38.5398C14.9962 38.294 14.6675 38.0943 14.3231 37.8177C13.9787 37.5412 13.6656 37.3108 13.3212 37.0189L13.2273 36.9421ZM15.4658 43.64C15.2467 43.1792 15.0431 42.7029 14.8553 42.2267C14.6675 41.7505 14.5266 41.3511 14.3544 40.9209C14.1822 40.4908 14.2135 40.4754 14.1352 40.2603C14.057 40.0453 13.9787 39.8148 13.9161 39.5844C13.6969 38.847 13.4934 38.0482 13.3369 37.3415L13.5874 37.5412L14.1196 37.956C15.5128 39.0006 16.6555 39.7381 17.4382 40.245L18.3461 40.798L18.9722 41.1667L19.9115 41.7044L20.6003 42.0731L20.9916 42.2882L21.4299 42.5033L22.4161 42.9948L22.9796 43.256C22.15 43.3942 21.3203 43.5018 20.475 43.5786H19.0662C18.5966 43.5786 18.127 43.5786 17.6573 43.5786C16.9286 43.6394 16.1969 43.6599 15.4658 43.64ZM35.1113 47.1887C35.0017 47.3423 34.8921 47.4652 34.7669 47.6189C34.7047 47.6867 34.6472 47.7586 34.5947 47.834L34.4068 48.049L34.0468 48.4638L33.6555 48.8786L33.2485 49.278L32.8258 49.662C32.6816 49.7931 32.5301 49.9163 32.3719 50.0307L32.1527 50.2151L31.9179 50.384L31.4326 50.722L30.9474 51.0293C30.8641 51.089 30.7749 51.1404 30.6812 51.1829L30.4308 51.3212C29.7469 51.6887 29.022 51.9774 28.2706 52.1814L27.6757 52.289H24.9363C24.8373 52.2964 24.7379 52.2964 24.6389 52.289L24.0284 52.1507L23.4336 51.9663C22.6397 51.6725 21.8874 51.2802 21.1951 50.7988C20.4639 50.3181 19.7915 49.7562 19.1914 49.1244C18.573 48.4793 18.0028 47.7914 17.4851 47.0658L17.1094 46.5128L16.9216 46.2209H17.7513C18.2678 46.2209 18.7688 46.2209 19.3166 46.1287L20.068 46.0519H20.835C22.7783 45.8042 24.6991 45.4086 26.58 44.869H26.6739L27.0496 44.9919L27.8479 45.2838L28.6776 45.5449L29.5542 45.8061C30.8145 46.1655 32.0951 46.4528 33.3894 46.6664C34.0625 46.7739 34.7512 46.8661 35.4713 46.9122L35.1113 47.1887ZM36.3949 45.2377C35.4147 45.2915 34.4322 45.2915 33.452 45.2377C32.1848 45.1645 30.9242 45.0054 29.6794 44.7615L28.8028 44.5925L27.9732 44.3928H27.7384L28.1453 44.2545C28.3802 44.1777 28.6306 44.1163 28.8654 44.0241L29.5855 43.7629L29.9455 43.64L30.3212 43.5018L31.0256 43.2099H31.2135L31.4013 42.9641L31.7457 42.8105L32.4345 42.5186C34.8024 41.4805 37.0709 40.2363 39.2126 38.801C39.1343 39.0621 39.0404 39.3386 38.9464 39.6151C38.5589 40.8129 38.0882 41.9832 37.5376 43.1177C37.2021 43.8343 36.8258 44.5318 36.4105 45.207L36.3949 45.2377Z" fill="white"/>
<path d="M6.35542 40.4294C6.6009 39.953 6.72956 39.4269 6.73112 38.8931C6.73671 38.0562 6.41528 37.2489 5.83294 36.6374C5.25061 36.0259 4.45164 35.6567 3.60037 35.6056H3.3499C2.46145 35.6056 1.60938 35.952 0.981154 36.5685C0.352925 37.185 0 38.0212 0 38.8931C0 39.765 0.352925 40.6012 0.981154 41.2178C1.60938 41.8343 2.46145 42.1806 3.3499 42.1806C3.9606 42.1795 4.5596 42.0161 5.08327 41.7078C5.60694 41.3994 6.03572 40.9577 6.32411 40.4294H6.35542Z" fill="white"/>
<path d="M48.1039 37.2494H47.7752C46.9969 37.3216 46.2689 37.6586 45.7172 38.2021C45.1655 38.7456 44.8249 39.4614 44.7543 40.2254C44.6836 40.9894 44.8876 41.7536 45.3306 42.3856C45.7737 43.0176 46.428 43.4777 47.1803 43.6861C47.4867 43.7667 47.8024 43.808 48.1195 43.809C48.5587 43.809 48.9936 43.7239 49.3991 43.5585C49.8047 43.3931 50.1729 43.1507 50.4828 42.8452C50.7926 42.5397 51.0379 42.1772 51.2045 41.7784C51.3711 41.3797 51.4559 40.9525 51.4538 40.5215C51.458 40.0887 51.3742 39.6593 51.2073 39.2586C51.0404 38.8579 50.7939 38.4938 50.482 38.1877C50.1701 37.8817 49.7991 37.6397 49.3908 37.4759C48.9825 37.3121 48.545 37.2299 48.1039 37.234V37.2494Z" fill="white"/>
<path d="M26.1259 38.3555C28.1761 38.3585 30.1812 37.7647 31.8874 36.6491C33.5936 35.5334 34.9243 33.9462 35.711 32.0882C36.4977 30.2301 36.7052 28.1849 36.3071 26.2111C35.909 24.2373 34.9233 22.4239 33.4747 21C32.026 19.5762 30.1796 18.6061 28.169 18.2125C26.1584 17.8188 24.074 18.0193 22.1795 18.7886C20.285 19.5579 18.6657 20.8613 17.5263 22.5341C16.3869 24.2068 15.7788 26.1737 15.7788 28.1857C15.7788 30.8803 16.8684 33.4647 18.8084 35.3714C20.7484 37.2782 23.3802 38.3514 26.1259 38.3555ZM22.9951 22.7014H29.0688V24.6063H25.3588V26.8953H28.8183V28.7848H25.3588V31.1506H29.3192V33.0402H23.0577L22.9951 22.7014Z" fill="white"/>
</svg>
